<?xml version="1.0" encoding="UTF-8" standalone="no"?>
<!DOCTYPE svg PUBLIC "-//W3C//DTD SVG 1.1//EN"
 "http://www.w3.org/Graphics/SVG/1.1/DTD/svg11.dtd">
<!-- Generated by graphviz version 9.0.0 (20230911.1827)
 -->
<!-- Title: toy_model_pta Pages: 1 -->
<svg width="329pt" height="238pt"
 viewBox="0.00 0.00 329.25 238.00" xmlns="http://www.w3.org/2000/svg" xmlns:xlink="http://www.w3.org/1999/xlink">
<g id="graph0" class="graph" transform="scale(1 1) rotate(0) translate(4 234)">
<title>toy_model_pta</title>
<polygon fill="white" stroke="none" points="-4,4 -4,-234 325.25,-234 325.25,4 -4,4"/>
<!-- * -->
<g id="node1" class="node">
<title>*</title>
<ellipse fill="none" stroke="black" cx="18" cy="-146" rx="18" ry="18"/>
<text text-anchor="middle" x="18" y="-140.57" font-family="Times New Roman,serif" font-size="14.00">*</text>
</g>
<!-- 0 -->
<g id="node2" class="node">
<title>0</title>
<ellipse fill="none" stroke="black" cx="100.5" cy="-146" rx="18" ry="18"/>
<text text-anchor="middle" x="100.5" y="-141.72" font-family="Times New Roman,serif" font-size="12.00">0: 0</text>
</g>
<!-- *&#45;&gt;0 -->
<g id="edge1" class="edge">
<title>*&#45;&gt;0</title>
<path fill="none" stroke="black" d="M36.47,-146C48.39,-146 64.28,-146 77.13,-146"/>
<polygon fill="black" stroke="black" points="77.05,-147.23 80.55,-146 77.05,-144.78 77.05,-147.23"/>
<text text-anchor="middle" x="59.25" y="-148.3" font-family="Times New Roman,serif" font-size="11.00">30</text>
</g>
<!-- 1 -->
<g id="node3" class="node">
<title>1</title>
<ellipse fill="none" stroke="black" cx="200.5" cy="-192" rx="18" ry="18"/>
<ellipse fill="none" stroke="black" cx="200.5" cy="-192" rx="22" ry="22"/>
<text text-anchor="middle" x="200.5" y="-187.72" font-family="Times New Roman,serif" font-size="12.00">1: 8</text>
</g>
<!-- 0&#45;&gt;1 -->
<g id="edge2" class="edge">
<title>0&#45;&gt;1</title>
<path fill="none" stroke="black" d="M117.25,-153.39C133.01,-160.79 157.46,-172.27 175.61,-180.79"/>
<polygon fill="black" stroke="black" points="175.02,-181.86 178.71,-182.24 176.07,-179.65 175.02,-181.86"/>
<text text-anchor="middle" x="148.5" y="-175.3" font-family="Times New Roman,serif" font-size="11.00">A: 15</text>
</g>
<!-- 2 -->
<g id="node4" class="node">
<title>2</title>
<ellipse fill="none" stroke="black" cx="200.5" cy="-115" rx="18" ry="18"/>
<ellipse fill="none" stroke="black" cx="200.5" cy="-115" rx="22" ry="22"/>
<text text-anchor="middle" x="200.5" y="-110.72" font-family="Times New Roman,serif" font-size="12.00">2: 3</text>
</g>
<!-- 0&#45;&gt;2 -->
<g id="edge3" class="edge">
<title>0&#45;&gt;2</title>
<path fill="none" stroke="black" d="M118.12,-140.74C133.63,-135.84 156.96,-128.46 174.68,-122.85"/>
<polygon fill="black" stroke="black" points="174.64,-124.15 177.61,-121.93 173.9,-121.81 174.64,-124.15"/>
<text text-anchor="middle" x="148.5" y="-136.3" font-family="Times New Roman,serif" font-size="11.00">B: 15</text>
</g>
<!-- 3 -->
<g id="node5" class="node">
<title>3</title>
<ellipse fill="none" stroke="black" cx="299.25" cy="-208" rx="18" ry="18"/>
<ellipse fill="none" stroke="black" cx="299.25" cy="-208" rx="22" ry="22"/>
<text text-anchor="middle" x="299.25" y="-203.72" font-family="Times New Roman,serif" font-size="12.00">3: 7</text>
</g>
<!-- 1&#45;&gt;3 -->
<g id="edge4" class="edge">
<title>1&#45;&gt;3</title>
<path fill="none" stroke="black" d="M222.49,-195.47C237.2,-197.9 256.94,-201.17 272.58,-203.76"/>
<polygon fill="black" stroke="black" points="272.15,-204.93 275.8,-204.29 272.55,-202.51 272.15,-204.93"/>
<text text-anchor="middle" x="249.88" y="-203.3" font-family="Times New Roman,serif" font-size="11.00">B: 7</text>
</g>
<!-- 4 -->
<g id="node6" class="node">
<title>4</title>
<ellipse fill="none" stroke="black" cx="299.25" cy="-146" rx="18" ry="18"/>
<ellipse fill="none" stroke="black" cx="299.25" cy="-146" rx="22" ry="22"/>
<text text-anchor="middle" x="299.25" y="-141.72" font-family="Times New Roman,serif" font-size="12.00">4: 5</text>
</g>
<!-- 2&#45;&gt;4 -->
<g id="edge5" class="edge">
<title>2&#45;&gt;4</title>
<path fill="none" stroke="black" d="M221.55,-121.42C236.62,-126.25 257.37,-132.9 273.48,-138.06"/>
<polygon fill="black" stroke="black" points="272.75,-139.12 276.45,-139.02 273.5,-136.78 272.75,-139.12"/>
<text text-anchor="middle" x="249.88" y="-135.3" font-family="Times New Roman,serif" font-size="11.00">A: 5</text>
</g>
<!-- 5 -->
<g id="node7" class="node">
<title>5</title>
<ellipse fill="none" stroke="black" cx="299.25" cy="-84" rx="18" ry="18"/>
<ellipse fill="none" stroke="black" cx="299.25" cy="-84" rx="22" ry="22"/>
<text text-anchor="middle" x="299.25" y="-79.72" font-family="Times New Roman,serif" font-size="12.00">5: 5</text>
</g>
<!-- 2&#45;&gt;5 -->
<g id="edge6" class="edge">
<title>2&#45;&gt;5</title>
<path fill="none" stroke="black" d="M221.55,-108.58C236.62,-103.75 257.37,-97.1 273.48,-91.94"/>
<polygon fill="black" stroke="black" points="273.5,-93.22 276.45,-90.98 272.75,-90.88 273.5,-93.22"/>
<text text-anchor="middle" x="249.88" y="-104.3" font-family="Times New Roman,serif" font-size="11.00">B: 5</text>
</g>
<!-- 6 -->
<g id="node8" class="node">
<title>6</title>
<ellipse fill="none" stroke="black" cx="299.25" cy="-22" rx="18" ry="18"/>
<ellipse fill="none" stroke="black" cx="299.25" cy="-22" rx="22" ry="22"/>
<text text-anchor="middle" x="299.25" y="-17.73" font-family="Times New Roman,serif" font-size="12.00">6: 2</text>
</g>
<!-- 2&#45;&gt;6 -->
<g id="edge7" class="edge">
<title>2&#45;&gt;6</title>
<path fill="none" stroke="black" d="M217.04,-100.06C233.97,-83.79 261.05,-57.76 279.23,-40.28"/>
<polygon fill="black" stroke="black" points="279.98,-41.26 281.65,-37.95 278.28,-39.5 279.98,-41.26"/>
<text text-anchor="middle" x="249.88" y="-78.3" font-family="Times New Roman,serif" font-size="11.00">C: 2</text>
</g>
</g>
</svg>
