<?xml version="1.0" encoding="UTF-8" standalone="no"?>
<!DOCTYPE svg PUBLIC "-//W3C//DTD SVG 1.1//EN"
 "http://www.w3.org/Graphics/SVG/1.1/DTD/svg11.dtd">
<!-- Generated by graphviz version 9.0.0 (20230911.1827)
 -->
<!-- Title: toy_pdfa Pages: 1 -->
<svg width="359pt" height="96pt"
 viewBox="0.00 0.00 358.50 95.50" xmlns="http://www.w3.org/2000/svg" xmlns:xlink="http://www.w3.org/1999/xlink">
<g id="graph0" class="graph" transform="scale(1 1) rotate(0) translate(4 91.5)">
<title>toy_pdfa</title>
<polygon fill="white" stroke="none" points="-4,4 -4,-91.5 354.5,-91.5 354.5,4 -4,4"/>
<!-- * -->
<g id="node1" class="node">
<title>*</title>
<ellipse fill="none" stroke="black" stroke-width="1.1" cx="18" cy="-22" rx="18" ry="18"/>
<text text-anchor="middle" x="18" y="-16.57" font-family="Times New Roman,serif" font-size="14.00">*</text>
</g>
<!-- 0 -->
<g id="node2" class="node">
<title>0</title>
<ellipse fill="none" stroke="black" stroke-width="1.1" cx="108.75" cy="-22" rx="18" ry="18"/>
<text text-anchor="middle" x="108.75" y="-17.73" font-family="Times New Roman,serif" font-size="12.00">0</text>
</g>
<!-- *&#45;&gt;0 -->
<g id="edge1" class="edge">
<title>*&#45;&gt;0</title>
<path fill="none" stroke="black" stroke-width="1.1" d="M36.11,-22C50.14,-22 70.11,-22 85.4,-22"/>
<polygon fill="black" stroke="black" stroke-width="1.1" points="85.22,-23.23 88.72,-22 85.22,-20.78 85.22,-23.23"/>
<text text-anchor="middle" x="63.38" y="-24.3" font-family="Times New Roman,serif" font-size="11.00">1.00</text>
</g>
<!-- 1 -->
<g id="node3" class="node">
<title>1</title>
<ellipse fill="none" stroke="black" stroke-width="1.1" cx="217" cy="-22" rx="18" ry="18"/>
<ellipse fill="none" stroke="black" stroke-width="1.1" cx="217" cy="-22" rx="22" ry="22"/>
<text text-anchor="middle" x="217" y="-17.93" font-family="Times New Roman,serif" font-size="11.00">1: 0.49</text>
</g>
<!-- 0&#45;&gt;1 -->
<g id="edge2" class="edge">
<title>0&#45;&gt;1</title>
<path fill="none" stroke="black" stroke-width="1.1" d="M126.82,-22C143.73,-22 169.86,-22 189.48,-22"/>
<polygon fill="black" stroke="black" stroke-width="1.1" points="189.4,-23.23 192.9,-22 189.4,-20.78 189.4,-23.23"/>
<text text-anchor="middle" x="160.88" y="-24.3" font-family="Times New Roman,serif" font-size="11.00">A: 0.50</text>
</g>
<!-- 0&#45;&gt;1 -->
<g id="edge3" class="edge">
<title>0&#45;&gt;1</title>
<path fill="none" stroke="black" stroke-width="1.1" d="M124.55,-13.11C130.59,-9.97 137.79,-6.83 144.75,-5.25 158.73,-2.08 162.96,-2.36 177,-5.25 182.19,-6.32 187.55,-8.11 192.57,-10.13"/>
<polygon fill="black" stroke="black" stroke-width="1.1" points="191.83,-11.15 195.53,-11.39 192.79,-8.9 191.83,-11.15"/>
<text text-anchor="middle" x="160.88" y="-7.3" font-family="Times New Roman,serif" font-size="11.00">B: 0.50</text>
</g>
<!-- 1&#45;&gt;1 -->
<g id="edge4" class="edge">
<title>1&#45;&gt;1</title>
<path fill="none" stroke="black" stroke-width="1.1" d="M206.98,-41.76C205.28,-52.35 208.62,-62 217,-62 224.07,-62 227.56,-55.13 227.45,-46.62"/>
<polygon fill="black" stroke="black" stroke-width="1.1" points="228.7,-46.79 227.17,-43.42 226.26,-47.01 228.7,-46.79"/>
<text text-anchor="middle" x="217" y="-77.05" font-family="Times New Roman,serif" font-size="11.00">A: 0.14</text>
<text text-anchor="middle" x="217" y="-64.3" font-family="Times New Roman,serif" font-size="11.00">C: 0.05</text>
</g>
<!-- 3 -->
<g id="node4" class="node">
<title>3</title>
<ellipse fill="none" stroke="black" stroke-width="1.1" cx="328.5" cy="-22" rx="18" ry="18"/>
<ellipse fill="none" stroke="black" stroke-width="1.1" cx="328.5" cy="-22" rx="22" ry="22"/>
<text text-anchor="middle" x="328.5" y="-17.93" font-family="Times New Roman,serif" font-size="11.00">3: 1.00</text>
</g>
<!-- 1&#45;&gt;3 -->
<g id="edge5" class="edge">
<title>1&#45;&gt;3</title>
<path fill="none" stroke="black" stroke-width="1.1" d="M239.37,-22C257.01,-22 282.12,-22 301.02,-22"/>
<polygon fill="black" stroke="black" stroke-width="1.1" points="301.02,-23.23 304.52,-22 301.02,-20.78 301.02,-23.23"/>
<text text-anchor="middle" x="272.75" y="-24.3" font-family="Times New Roman,serif" font-size="11.00">B: 0.32</text>
</g>
</g>
</svg>
